<svg width="27" height="27" viewBox="0 0 27 27" fill="none" xmlns="http://www.w3.org/2000/svg">
<path d="M13.4999 0.950623L24.3674 7.22587V19.7741L13.4999 26.0494L2.63245 19.7741V7.22587L13.4999 0.950623ZM13.4999 3.54937L4.88245 8.52412V18.4759L13.4999 23.4506L22.1174 18.4759V8.52412L13.4999 3.54937ZM13.4999 10.125C12.6048 10.125 11.7464 10.4806 11.1135 11.1135C10.4805 11.7464 10.1249 12.6049 10.1249 13.5C10.1249 14.3951 10.4805 15.2535 11.1135 15.8865C11.7464 16.5194 12.6048 16.875 13.4999 16.875C14.3951 16.875 15.2535 16.5194 15.8864 15.8865C16.5194 15.2535 16.8749 14.3951 16.8749 13.5C16.8749 12.6049 16.5194 11.7464 15.8864 11.1135C15.2535 10.4806 14.3951 10.125 13.4999 10.125ZM7.87495 13.5C7.87495 12.0082 8.46758 10.5774 9.52247 9.52252C10.5774 8.46763 12.0081 7.875 13.4999 7.875C14.9918 7.875 16.4225 8.46763 17.4774 9.52252C18.5323 10.5774 19.1249 12.0082 19.1249 13.5C19.1249 14.9918 18.5323 16.4226 17.4774 17.4775C16.4225 18.5324 14.9918 19.125 13.4999 19.125C12.0081 19.125 10.5774 18.5324 9.52247 17.4775C8.46758 16.4226 7.87495 14.9918 7.87495 13.5Z" fill="white"/>
</svg>
